<svg width="512" height="512" viewBox="0 0 512 512" fill="none" xmlns="http://www.w3.org/2000/svg">
  <defs>
    <radialGradient id="bubbleCore" cx="0" cy="0" r="1" gradientUnits="userSpaceOnUse" gradientTransform="translate(252 248) rotate(90) scale(154)">
      <stop offset="0" stop-color="#FFF8B8" stop-opacity="0.96"/>
      <stop offset="0.26" stop-color="#FFE066" stop-opacity="0.82"/>
      <stop offset="0.56" stop-color="#FF9B70" stop-opacity="0.5"/>
      <stop offset="1" stop-color="#FF9B70" stop-opacity="0"/>
    </radialGradient>
    <linearGradient id="outerLoop" x1="146" y1="116" x2="352" y2="392" gradientUnits="userSpaceOnUse">
      <stop offset="0" stop-color="#FF5168"/>
      <stop offset="0.45" stop-color="#FFB800"/>
      <stop offset="1" stop-color="#FF6AD5"/>
    </linearGradient>
    <linearGradient id="innerLoop" x1="186" y1="172" x2="322" y2="336" gradientUnits="userSpaceOnUse">
      <stop offset="0" stop-color="#CCFF38"/>
      <stop offset="1" stop-color="#6BFFB8"/>
    </linearGradient>
    <linearGradient id="dotWarm" x1="220" y1="218" x2="288" y2="292" gradientUnits="userSpaceOnUse">
      <stop offset="0" stop-color="#FFDC56"/>
      <stop offset="1" stop-color="#FF5F67"/>
    </linearGradient>
    <filter id="softGlow" x="84" y="84" width="344" height="344" filterUnits="userSpaceOnUse" color-interpolation-filters="sRGB">
      <feFlood flood-opacity="0" result="BackgroundImageFix"/>
      <feBlend mode="normal" in="SourceGraphic" in2="BackgroundImageFix" result="shape"/>
      <feGaussianBlur stdDeviation="12" result="effect1_foregroundBlur"/>
    </filter>
  </defs>

  <g filter="url(#softGlow)">
    <ellipse cx="250" cy="250" rx="122" ry="160" transform="rotate(-8 250 250)" fill="url(#bubbleCore)"/>

    <path d="M198 112C242 90 298 96 334 132C369 168 380 224 365 284C351 340 313 380 263 392C216 403 169 384 143 347C120 314 115 266 126 224C138 181 160 132 198 112Z" stroke="url(#outerLoop)" stroke-width="18" stroke-linecap="round" stroke-linejoin="round"/>

    <path d="M228 156C264 148 301 162 322 191C343 220 346 259 332 293C317 327 286 349 250 351C214 353 183 335 166 304C149 273 149 236 164 204C177 177 198 163 228 156Z" stroke="url(#innerLoop)" stroke-width="11" stroke-linecap="round" stroke-linejoin="round" stroke-dasharray="14 14"/>

    <circle cx="188" cy="150" r="28" stroke="#96FF3B" stroke-width="10" stroke-opacity="0.92"/>
    <circle cx="188" cy="150" r="11" fill="#C7FF57"/>

    <circle cx="312" cy="150" r="24" stroke="#78FFB9" stroke-width="9" stroke-opacity="0.94"/>
    <circle cx="312" cy="150" r="9" fill="#B8FF67"/>

    <circle cx="338" cy="262" r="32" stroke="#9BFF2D" stroke-width="10" stroke-opacity="0.9"/>
    <circle cx="338" cy="262" r="13" fill="#D8FF77"/>

    <circle cx="232" cy="220" r="40" fill="#FFE270" fill-opacity="0.2"/>
    <circle cx="232" cy="220" r="26" fill="url(#dotWarm)"/>

    <circle cx="208" cy="314" r="38" fill="#B4FF5F" fill-opacity="0.18"/>
    <circle cx="208" cy="314" r="23" fill="#9BFF2D"/>

    <circle cx="282" cy="322" r="34" fill="#FFA1C0" fill-opacity="0.22"/>
    <circle cx="282" cy="322" r="21" fill="#FF6B72"/>

    <circle cx="270" cy="110" r="10" fill="#FFF0A8" fill-opacity="0.9"/>
    <circle cx="150" cy="238" r="12" fill="#A8FF52" fill-opacity="0.88"/>
    <circle cx="340" cy="356" r="11" fill="#A6FF70" fill-opacity="0.82"/>
  </g>
</svg>
